<svg xmlns="http://www.w3.org/2000/svg" version="1.1" xmlns:xlink="http://www.w3.org/1999/xlink" xmlns:svgjs="http://svgjs.dev/svgjs" width="2000" height="1500" viewBox="0 0 2000 1500"><rect width="2000" height="1500" fill="#000000"></rect><g transform="matrix(0.75,0,0,0.75,249.090909090909,333.29146633782693)"><svg viewBox="0 0 396 220" data-background-color="#191624" preserveAspectRatio="xMidYMid meet" height="1111" width="2000" xmlns="http://www.w3.org/2000/svg" xmlns:xlink="http://www.w3.org/1999/xlink"><g id="tight-bounds" transform="matrix(1,0,0,1,0.2400000000000091,0.02205509232291547)"><svg viewBox="0 0 395.52 219.95588981535417" height="219.95588981535417" width="395.52"><g><svg viewBox="0 0 397.4975999999999 221.05566926443092" height="219.95588981535417" width="395.52"><g><rect width="397.4975999999999" height="6.7706431871179245" x="0" y="121.4824781073588" fill="#ffffff" opacity="1" stroke-width="0" stroke="transparent" fill-opacity="1" class="rect-uu-0" data-fill-palette-color="secondary" rx="1%" id="uu-0" data-palette-color="#fbfbfb"></rect></g><g transform="matrix(1,0,0,1,0.9887999999999693,145.97731811939275)"><svg viewBox="0 0 395.52 75.07835114503817" height="75.07835114503817" width="395.52"><g><svg viewBox="0 0 395.52 75.07835114503817" height="75.07835114503817" width="395.52"><g><svg viewBox="0 0 395.52 75.07835114503817" height="75.07835114503817" width="395.52"><g transform="matrix(1,0,0,1,0,0)"><svg width="395.52" viewBox="2.55 -36.7 196.48 37.300000000000004" height="75.07835114503817" data-palette-color="#fbfbfb"><path d="M13.3 0.6L13.3 0.6Q8.65 0.6 5.6-3.18 2.55-6.95 2.55-13.05 2.55-19.15 4.65-24.18 6.75-29.2 10.65-32.35 14.55-35.5 18.98-35.5 23.4-35.5 26.13-33.5 28.85-31.5 28.85-28.73 28.85-25.95 27.2-24L27.2-24Q25.6-24 23.6-24.7 21.6-25.4 20.6-26.4L20.6-26.4 21.55-31.45Q20.35-32.2 18.4-32.2L18.4-32.2Q15.35-32.2 13-26.98 10.65-21.75 10.65-14.1L10.65-14.1Q10.65-9.05 12.33-6.78 14-4.5 16.4-4.5L16.4-4.5Q20.35-4.5 24-8.2L24-8.2 26.05-6.35Q25.5-5.55 24.05-4.15 22.6-2.75 21.2-1.83 19.8-0.9 17.65-0.15 15.5 0.6 13.3 0.6ZM29.6 0.15L29.6 0.15 29.25 0.15Q29.15-0.25 29.15-1.68 29.15-3.1 30.5-9.35 31.85-15.6 31.85-16.5L31.85-16.5Q31.85-18.05 30.45-19.9L30.45-19.9 30-20.5 30.05-21.15Q32.75-21.9 38.7-21.9L38.7-21.9Q39.3-20.6 39.3-18.25L39.3-18.25Q39.85-19.15 41.6-20.65 43.35-22.15 45.2-22.15L45.2-22.15Q47.9-22.15 47.9-17.45L47.9-17.45Q47.65-17.15 47.22-16.68 46.8-16.2 45.52-15.35 44.25-14.5 43.05-14.3L43.05-14.3Q43-14.3 42.2-15.65 41.4-17 41-17L41-17Q39.75-16.55 38.8-15.5L38.8-15.5Q36.5-5.15 36.5-2.1L36.5-2.1Q36.5-1 36.55-0.55L36.55-0.55Q34.8 0.15 29.6 0.15ZM46.59-8.65L46.59-8.65Q46.59-14.9 50.37-18.53 54.15-22.15 58.95-22.15L58.95-22.15Q61.9-22.15 63.8-20.7 65.7-19.25 65.7-16.82 65.7-14.4 64.47-12.75 63.25-11.1 61.5-10.2L61.5-10.2Q57.95-8.45 55-8L55-8 53.8-7.85Q54.15-3.15 57.65-3.15L57.65-3.15Q58.84-3.15 60.2-3.75 61.55-4.35 62.3-4.95L62.3-4.95 63.05-5.55 64.25-3.95Q63.84-3.4 62.65-2.5 61.45-1.6 60.4-1L60.4-1Q57.5 0.6 54.05 0.6 50.59 0.6 48.59-1.85 46.59-4.3 46.59-8.65ZM53.75-10.3Q56.3-10.75 57.8-12.45 59.3-14.15 59.3-16.85 59.3-19.55 57.7-19.55L57.7-19.55Q55.8-19.55 54.77-16.32 53.75-13.1 53.75-10.3L53.75-10.3ZM82.69-6.55L82.69-6.55Q82.69-3.4 79.92-1.4 77.14 0.6 73.59 0.6 70.04 0.6 67.97-0.9 65.89-2.4 65.89-3.55L65.89-3.55Q65.89-4.25 67.64-5.83 69.39-7.4 70.59-7.75L70.59-7.75Q73.09-5.9 74.69-1.9L74.69-1.9Q76.54-2.05 76.54-3.65L76.54-3.65Q76.54-5.95 72.49-10.18 68.44-14.4 68.44-16.9 68.44-19.4 70.69-20.78 72.94-22.15 76.12-22.15 79.29-22.15 80.89-21.03 82.49-19.9 82.49-17.98 82.49-16.05 79.44-12.65L79.44-12.65Q79.79-12.3 80.34-11.73 80.89-11.15 81.79-9.55 82.69-7.95 82.69-6.55ZM77.89-14.4Q79.99-16.2 79.99-17.95 79.99-19.7 77.59-19.7L77.59-19.7Q76.44-19.7 75.69-19.23 74.94-18.75 74.94-18.15L74.94-18.15Q74.94-17.05 77.14-15.05L77.14-15.05 77.89-14.4ZM96.49-19.65L96.49-19.65Q94.49-19.65 93.29-16.32 92.09-13 92.09-9.2L92.09-9.2Q92.09-3.2 95.79-3.2L95.79-3.2Q96.99-3.2 98.34-3.78 99.69-4.35 100.49-4.9L100.49-4.9 101.24-5.5 102.39-3.95Q101.99-3.4 100.79-2.5 99.59-1.6 98.54-1 97.49-0.4 95.84 0.1 94.19 0.6 92.59 0.6L92.59 0.6Q88.69 0.6 86.74-1.95 84.79-4.5 84.79-8.8L84.79-8.8Q84.79-14.75 88.07-18.45 91.34-22.15 96.49-22.15L96.49-22.15Q99.84-22.15 101.82-20.63 103.79-19.1 103.79-16.88 103.79-14.65 102.39-13.05L102.39-13.05Q101.14-13.05 99.49-13.6 97.84-14.15 96.99-14.95L96.99-14.95 97.74-19.35Q97.29-19.65 96.49-19.65ZM104.64-8.65L104.64-8.65Q104.64-14.9 108.41-18.53 112.19-22.15 116.99-22.15L116.99-22.15Q119.94-22.15 121.84-20.7 123.74-19.25 123.74-16.82 123.74-14.4 122.51-12.75 121.29-11.1 119.54-10.2L119.54-10.2Q115.99-8.45 113.04-8L113.04-8 111.84-7.85Q112.19-3.15 115.69-3.15L115.69-3.15Q116.89-3.15 118.24-3.75 119.59-4.35 120.34-4.95L120.34-4.95 121.09-5.55 122.29-3.95Q121.89-3.4 120.69-2.5 119.49-1.6 118.44-1L118.44-1Q115.54 0.6 112.09 0.6 108.64 0.6 106.64-1.85 104.64-4.3 104.64-8.65ZM111.79-10.3Q114.34-10.75 115.84-12.45 117.34-14.15 117.34-16.85 117.34-19.55 115.74-19.55L115.74-19.55Q113.84-19.55 112.81-16.32 111.79-13.1 111.79-10.3L111.79-10.3ZM126.14 0.15L126.14 0.15 125.19 0.15Q125.19-2.2 126.61-8.85 128.04-15.5 128.04-16.4L128.04-16.4Q128.04-18.05 126.64-19.9L126.64-19.9 126.19-20.5 126.24-21.15Q128.94-21.9 134.89-21.9L134.89-21.9Q135.54-21.05 135.59-18.8L135.59-18.8Q139.94-22.15 142.94-22.15L142.94-22.15Q144.74-22.15 145.81-20.9 146.89-19.65 146.89-17.78 146.89-15.9 145.74-11.3 144.59-6.7 144.59-5.13 144.59-3.55 144.99-3.55L144.99-3.55Q145.29-3.55 147.09-4.5L147.09-4.5 147.69-4.8 148.59-3.05Q148.14-2.65 147.39-2.05 146.64-1.45 144.61-0.43 142.59 0.6 140.99 0.6L140.99 0.6Q137.34 0.6 137.34-3.55L137.34-3.55Q137.34-5.3 138.46-10 139.59-14.7 139.59-16.05 139.59-17.4 138.74-17.4L138.74-17.4Q137.29-17.4 135.19-16.15L135.19-16.15Q135.04-15.3 134.19-11.65L134.19-11.65Q132.44-3.8 132.44-0.55L132.44-0.55Q130.69 0.15 126.14 0.15ZM172.93-4.8L173.88-3.05Q169.63 0.6 166.41 0.6 163.18 0.6 162.68-2.6L162.68-2.6Q161.18-1.1 159.33-0.25 157.48 0.6 156.08 0.6L156.08 0.6Q153.68 0.6 151.98-1.5 150.28-3.6 150.28-8L150.28-8Q150.28-14.6 153.08-18.38 155.88-22.15 159.41-22.15 162.93-22.15 165.33-20.55L165.33-20.55Q166.88-28.65 166.88-33.3L166.88-33.3 166.63-35.4Q170.38-36.7 173.98-36.7L173.98-36.7Q174.38-35.85 174.38-34.75L174.38-34.75Q174.38-31.1 172.18-19.93 169.98-8.75 169.98-4.75L169.98-4.75Q169.98-3.55 170.53-3.55L170.53-3.55Q170.83-3.55 172.43-4.5L172.43-4.5 172.93-4.8ZM161.83-19.2L161.83-19.2Q160.08-19.2 158.81-15.75 157.53-12.3 157.53-8.93 157.53-5.55 158.01-4.6 158.48-3.65 159.43-3.65L159.43-3.65Q161.08-3.65 162.68-5L162.68-5Q162.83-7 164.93-18.3L164.93-18.3Q163.23-19.2 161.83-19.2ZM182.28 0.6L182.28 0.6Q178.83 0.6 176.88-1.83 174.93-4.25 174.93-8.6L174.93-8.6Q174.93-14.15 177.91-18.15 180.88-22.15 186.13-22.15L186.13-22.15 187.93-22.05Q188.78-22.5 189.83-22.5L189.83-22.5Q193.78-22.5 193.78-15.05L193.78-15.05Q195.83-15.15 197.93-15.6L197.93-15.6 198.73-15.8 199.03-13.85Q197.38-13.15 194.58-12.6L194.58-12.6 193.58-12.4Q192.63-7.15 189.73-3.28 186.83 0.6 182.28 0.6ZM184.98-3.7L184.98-3.7Q187.08-3.7 188.75-6.4 190.43-9.1 191.08-12.1L191.08-12.1Q185.73-12.1 185.73-16.1L185.73-16.1Q185.73-17.7 186.38-19.1L186.38-19.1 186.63-19.6Q186.43-19.7 186.13-19.7 185.83-19.7 185.68-19.6L185.68-19.6Q184.43-18.8 183.33-15.85 182.23-12.9 182.23-9.1L182.23-9.1Q182.23-3.7 184.98-3.7Z" opacity="1" transform="matrix(1,0,0,1,0,0)" fill="#ffffff" class="undefined-text-0" data-fill-palette-color="primary" id="text-0"></path></svg></g></svg></g></svg></g></svg></g><g transform="matrix(1,0,0,1,135.6877386876315,0)"><svg viewBox="0 0 126.12212262473692 103.75828128244277" height="103.75828128244277" width="126.12212262473692"><g><svg xmlns="http://www.w3.org/2000/svg" xmlns:xlink="http://www.w3.org/1999/xlink" version="1.1" x="8" y="0" viewBox="2.4799999216699558 5 95.52000007833004 90" enable-background="new 0 0 100 100" xml:space="preserve" height="103.75828128244277" width="110.12212262473692" class="icon-icon-0" data-fill-palette-color="accent" id="icon-0"><g fill="#ffffff" data-fill-palette-color="accent"><g fill="#ffffff" data-fill-palette-color="accent"><path d="M95.03 5H33.45C32.208 5 30 6.242 30 7.485v46.399c0-0.843-4.157-1.279-6.623-1.279-11.689 0-20.897 9.509-20.897 21.195C2.479 85.488 12.053 95 23.74 95 35.429 95 45 85.488 45 73.801V40h38v13.882c-3-0.84-4.606-1.276-7.072-1.276-11.689 0-21.119 9.509-21.119 21.195C54.809 85.488 64.715 95 76.402 95 88.092 95 98 85.488 98 73.801V7.485C98 6.242 96.272 5 95.03 5zM93 73.801c0 9.207-7.6 16.697-16.809 16.697-9.204 0-16.751-7.49-16.751-16.697 0-9.206 7.463-16.696 16.669-16.696 2.92 0 5.789 0.778 8.332 2.251 0.695 0.405 1.644 0.405 2.342 0.005C87.481 58.957 88 58.213 88 57.41V35.908C88 34.663 86.798 35 85.558 35H42.923C41.681 35 40 34.663 40 35.908v37.893c0 9.207-7.153 16.697-16.359 16.697-9.209 0-16.53-7.49-16.53-16.697 0-9.206 7.574-16.696 16.783-16.696 2.918 0 5.844 0.778 8.388 2.251 0.696 0.405 1.226 0.405 1.921 0.005C34.899 58.957 35 58.213 35 57.41V10h58V73.801z" fill="#ffffff" data-fill-palette-color="accent"></path><path d="M88 17.248C88 16.007 86.992 15 85.749 15H42.251C41.008 15 40 16.007 40 17.248v10.504C40 28.993 41.008 30 42.251 30h43.498C86.992 30 88 28.993 88 27.752V17.248zM45 20h38v5H45V20z" fill="#ffffff" data-fill-palette-color="accent"></path></g></g></svg></g></svg></g><g><rect width="59.15461868763153" height="6.7706431871179245" y="95.98763809532484" x="261.8098613123684" fill="#ffffff" data-fill-palette-color="secondary"></rect><rect width="59.15461868763153" height="6.7706431871179245" y="95.98763809532484" x="76.53311999999997" fill="#ffffff" data-fill-palette-color="secondary"></rect></g></svg></g><defs></defs></svg><rect width="395.52" height="219.95588981535417" fill="none" stroke="none" visibility="hidden"></rect></g></svg></g></svg>